<svg xmlns="http://www.w3.org/2000/svg" viewBox="0 0 777 141.73" aria-label="modrinth"><g fill="#fff"><path d="M139.28 89.29A70.94 70.94 0 10.21 63.52h12a58.78 58.78 0 01113.23-13.59l-11.66 3.12a46.54 46.54 0 00-29-26.52l-2.15 12.13a34.31 34.31 0 012.77 63.26l3.19 11.9a46.52 46.52 0 0028.33-49l11.62-3.1A57.94 57.94 0 01127.48 85z" fill-rule="evenodd"/><path d="M89.13 139.3A70.93 70.93 0 010 76h12a59.48 59.48 0 001.78 9.91 58.73 58.73 0 003.63 9.91l10.68-6.41a46.58 46.58 0 0144.72-65l-2.17 12.13a34.38 34.38 0 00-33.07 43.21c.31 1.13.64 2.25 1.07 3.25l13.66-8.19-4.09-10.88 12.9-13.25 16.31-3.51L82.11 53l-7.52 7.61-6.55 2.06-4.69 4.82 2.3 6.38s4.64 4.94 4.65 4.94l6.57-1.74 4.67-5.13 10.2-3.24 3 6.84-10.48 12.89L66.62 94l-7.92-8.81-13.79 8.29a34.44 34.44 0 0028.72 11.59L76.82 117a46.6 46.6 0 01-42.48-17.17l-10.64 6.38a58.81 58.81 0 0099.6-9.77l11.8 4.29a70.77 70.77 0 01-45.97 38.57z"/></g><g fill="#fff"><path d="M283.21 52.44q7.51 7.45 7.52 22.37v39h-15.98v-37q0-8.92-4-13.45t-11.35-4.52q-8 0-12.87 5.29t-4.85 15.1v34.55H225.8v-37q0-8.92-4-13.45t-11.35-4.52q-8.16 0-12.94 5.22t-4.78 15.17v34.55h-15.88v-68h15.17v8.66a24.78 24.78 0 019.56-7A32.51 32.51 0 01214.32 45a30.83 30.83 0 0113.58 2.87 22 22 0 019.37 8.48A28.31 28.31 0 01248.1 48a35.16 35.16 0 0114.66-3q12.88 0 20.45 7.44zM323.7 110.25a32.53 32.53 0 01-12.94-12.43 35 35 0 01-4.66-18 34.68 34.68 0 014.66-18 32.66 32.66 0 0112.94-12.37 41.33 41.33 0 0137.35 0 32.7 32.7 0 0112.93 12.37 34.68 34.68 0 014.66 18 35 35 0 01-4.66 18 32.57 32.57 0 01-12.93 12.43 41.33 41.33 0 01-37.35 0zm33.14-15q5.73-5.86 5.74-15.43t-5.74-15.42a19.46 19.46 0 00-14.53-5.87 19.25 19.25 0 00-14.47 5.87q-5.63 5.82-5.63 15.38t5.67 15.43a19.25 19.25 0 0014.47 5.86 19.46 19.46 0 0014.49-5.86zM460.6 19.23v94.59h-15.29V105a24.75 24.75 0 01-9.76 7.27 33 33 0 01-12.81 2.42 35.84 35.84 0 01-17.65-4.33 31.06 31.06 0 01-12.3-12.31 36.71 36.71 0 01-4.47-18.29 36.4 36.4 0 014.47-18.23 31.27 31.27 0 0112.3-12.24A35.94 35.94 0 01422.74 45a32.36 32.36 0 0112.37 2.3 24.89 24.89 0 019.56 6.88V19.23zm-25.62 79.23a18.92 18.92 0 007.23-7.46 22.87 22.87 0 002.67-11.22 22.87 22.87 0 00-2.67-11.22 18.89 18.89 0 00-7.27-7.45 21.65 21.65 0 00-20.65 0 18.89 18.89 0 00-7.27 7.45 22.87 22.87 0 00-2.67 11.22A22.87 22.87 0 00407.06 91a18.92 18.92 0 007.27 7.46 21.73 21.73 0 0020.65 0zM520.9 45v15.15a20.64 20.64 0 00-3.7-.38q-9.3 0-14.53 5.42t-5.23 15.61v33h-15.93V45.75h15.17v9.94Q503.56 45 520.9 45zM535.21 31.79a8.94 8.94 0 01-3-6.79 8.94 8.94 0 013-6.85 10.2 10.2 0 017.26-2.74 10.55 10.55 0 017.24 2.59 8.43 8.43 0 012.93 6.56 9.58 9.58 0 01-2.87 7.08 9.92 9.92 0 01-7.33 2.87 10.2 10.2 0 01-7.23-2.72zm-.77 14h15.94v68.07h-15.97zM630.53 52.5q7.77 7.53 7.77 22.31v39h-15.93v-37q0-8.92-4.21-13.45t-12-4.52q-8.81 0-13.9 5.29t-5.05 15.27v34.42h-16V45.75h15.17v8.79a25 25 0 019.94-7.14 35.91 35.91 0 0113.56-2.4q12.87 0 20.65 7.5zM696.81 110.12a18.65 18.65 0 01-6.82 3.44 30.46 30.46 0 01-8.47 1.15q-11.22 0-17.34-5.86t-6.12-17.09V30.7H674v15.56h18.21V59H674v32.38c0 3.32.82 5.85 2.48 7.59a9.14 9.14 0 007 2.61 14 14 0 008.92-2.8zM769.21 52.5q7.77 7.53 7.78 22.31v39h-15.93v-37q0-8.92-4.21-13.45t-12-4.52q-8.79 0-13.89 5.29t-5.1 15.23v34.42h-15.92V19.23h15.94v34.42a25.82 25.82 0 019.75-6.44A36 36 0 01748.57 45q12.87 0 20.64 7.5z"/></g></svg>