<svg viewBox="0 0 1024 1024" xmlns="http://www.w3.org/2000/svg" width="200" height="200"><defs><style/></defs><path d="M343.04 97.28H230.4c-73.216 0-133.12 59.904-133.12 133.12v112.64c0 73.216 59.904 133.12 133.12 133.12h215.04c16.896 0 30.72-13.824 30.72-30.72V230.4c0-73.216-59.904-133.12-133.12-133.12zm450.56 0H680.96c-73.216 0-133.12 59.904-133.12 133.12v215.04c0 16.896 13.824 30.72 30.72 30.72H793.6c73.216 0 133.12-59.904 133.12-133.12V230.4c0-73.216-59.904-133.12-133.12-133.12zM445.44 547.84H230.4c-73.216 0-133.12 59.904-133.12 133.12V793.6c0 73.216 59.904 133.12 133.12 133.12h112.64c73.216 0 133.12-59.904 133.12-133.12V578.56c0-16.896-13.824-30.72-30.72-30.72zm348.16 0H578.56c-16.896 0-30.72 13.824-30.72 30.72V793.6c0 73.216 59.904 133.12 133.12 133.12H793.6c73.216 0 133.12-59.904 133.12-133.12V680.96c0-73.216-59.904-133.12-133.12-133.12z" fill="#505050"/></svg>