<svg class="prefix__icon" viewBox="0 0 1084 1024" xmlns="http://www.w3.org/2000/svg" width="211.719" height="200"><defs><style/></defs><path d="M896.438 165.698h-62.34l54.57-54.57c23.43-23.37 23.43-70.17 0-93.54-23.37-23.37-70.17-23.37-93.54 0l-155.88 148.17H452.17L296.23 17.528c-23.43-23.37-70.17-23.37-93.54 0-23.37 23.43-23.43 70.17 0 93.54l54.57 54.57h-62.34A192.983 192.983 0 00.01 360.607v420.899c0 116.97 85.71 202.68 194.91 202.68h693.75a192.983 192.983 0 00194.85-194.85v-428.73c7.83-109.14-77.94-194.91-187.08-194.91zm54.63 615.809a69.869 69.869 0 01-70.17 70.17h-678.27a69.869 69.869 0 01-70.109-70.17v-413.13a69.869 69.869 0 0170.17-70.17H880.9a69.869 69.869 0 0170.17 70.17v413.19zM343.03 438.547a69.869 69.869 0 00-70.23 70.17v70.17a69.869 69.869 0 0070.17 70.17 69.869 69.869 0 0070.23-70.17v-70.17a69.869 69.869 0 00-70.23-70.17zm405.36 0a69.869 69.869 0 00-70.23 70.17v70.17a69.869 69.869 0 0070.17 70.17 69.869 69.869 0 0070.23-70.17v-70.17a69.869 69.869 0 00-70.17-70.17z" fill="#fb7299"/></svg>