<svg class="prefix__icon" viewBox="0 0 1024 1024" xmlns="http://www.w3.org/2000/svg" width="200" height="200"><defs><style/></defs><path d="M1021.724 512a495.16 495.16 0 01-97.575 299.645 500.622 500.622 0 01-250.858 184.23 30.583 30.583 0 01-26.214-4.734 25.85 25.85 0 01-8.01-20.025v-139.81a119.057 119.057 0 00-34.588-94.3 473.316 473.316 0 0067.72-11.65 248.309 248.309 0 0062.26-26.214 187.506 187.506 0 0053.52-43.691 209.351 209.351 0 0036.41-69.905 334.234 334.234 0 0013.835-100.124 191.875 191.875 0 00-52.793-136.534 176.219 176.219 0 00-5.097-135.44 87.017 87.017 0 00-53.522 7.28 341.88 341.88 0 00-61.166 29.128l-25.123 15.656a473.316 473.316 0 00-254.862 0c-7.282-5.097-16.384-10.559-28.035-17.84a371.007 371.007 0 00-56.798-26.943 94.299 94.299 0 00-57.162-9.102 178.404 178.404 0 00-4.733 136.533 197.7 197.7 0 00-52.428 137.262 327.68 327.68 0 0013.835 99.396 223.55 223.55 0 0036.409 69.905 172.942 172.942 0 0053.52 44.419 304.742 304.742 0 0062.26 26.214 471.131 471.131 0 0068.085 11.65 105.222 105.222 0 00-32.768 68.45 112.868 112.868 0 01-30.22 9.466 190.418 190.418 0 01-36.409 3.277 78.643 78.643 0 01-46.603-14.928 124.518 124.518 0 01-36.409-41.506 109.227 109.227 0 00-32.04-34.588 91.75 91.75 0 00-32.768-16.02H160.29a47.332 47.332 0 00-19.297 2.912q-5.46 3.277-3.276 7.646a50.244 50.244 0 006.19 9.102 62.987 62.987 0 008.737 8.374l4.733 2.913a88.838 88.838 0 0129.128 25.122 179.496 179.496 0 0120.753 33.496l6.553 15.292a82.284 82.284 0 0029.127 41.142 109.227 109.227 0 0044.055 18.933 223.186 223.186 0 0045.875 4.733 207.167 207.167 0 0036.41-2.549l15.29-2.548v95.391a26.214 26.214 0 01-8.737 20.025 31.676 31.676 0 01-26.579 4.733 498.438 498.438 0 01-249.4-185.321A486.787 486.787 0 012.275 512a497.71 497.71 0 0168.448-254.862A504.627 504.627 0 01257.138 70.724 497.71 497.71 0 01512 2.276a497.71 497.71 0 01254.862 68.448 504.627 504.627 0 01186.414 186.414A496.981 496.981 0 011021.724 512z"/></svg>