<svg class="prefix__icon" viewBox="0 0 1024 1024" xmlns="http://www.w3.org/2000/svg" width="200" height="200"><defs><style/></defs><path d="M512 1024C229.222 1024 0 794.778 0 512S229.222 0 512 0s512 229.222 512 512-229.222 512-512 512zm-55.603-534.118c12.288-43.008 55.04-78.9 101.888-84.378 9.574 35.533 19.865 70.298 27.904 105.626 2.713 11.776 1.894 25.344-.922 37.222-10.905 45.67-63.897 63.59-101.273 35.072-27.136-20.736-37.99-57.344-27.597-93.542zm195.43-10.087c-6.4-23.808-13.107-47.462-20.121-72.704 25.6 6.656 46.49 18.432 64.256 35.738 64.358 62.515 70.912 168.96 15.052 242.227-58.112 76.288-161.536 109.26-257.433 82.176-117.863-33.28-194.97-151.142-176.18-272.18 14.03-90.52 65.025-153.804 148.48-191.129 20.839-9.318 29.697-28.672 21.505-47.616-8.039-18.637-27.648-25.805-48.333-17.561-139.315 55.756-221.184 211.66-187.904 357.734 36.505 159.642 178.944 264.346 341.76 248.78 88.678-8.447 161.997-48.537 215.859-120.166 77.107-102.502 66.406-244.89-23.706-332.748-34.099-33.28-75.315-52.122-122.368-59.034-4.25-.666-11.11-2.662-11.878-5.427-4.454-16.026-9.216-32.359-10.547-48.845-1.485-18.278 14.848-32.768 33.28-33.024 12.953-.154 22.22 6.656 30.873 15.36 15.514 15.36 36.045 16.486 50.586 3.174 14.848-13.516 15.155-34.713.922-51.61-28.98-34.406-81.204-45.618-124.416-26.777-43.367 18.944-67.636 60.775-61.44 107.162 1.945 14.336 5.632 28.518 8.55 43.11l-13.312 3.687a197.786 197.786 0 00-107.418 72.396c-47.155 62.464-47.923 144.794-2.099 202.087 65.229 81.613 191.847 65.74 231.578-29.082 14.54-34.611 14.08-70.041 4.454-105.728z" fill="#dd001b"/></svg>