<svg viewBox="0 0 1024 1024" xmlns="http://www.w3.org/2000/svg" width="200" height="200"><defs><style/></defs><path d="M527.008 20.992Q320.992 25.984 184 163.008T41.984 506.016Q46.976 712.032 184 849.024T527.008 991.04q206.016-4.992 343.008-142.016t142.016-343.008Q1007.04 300 870.016 163.008T527.008 20.992zm296 490.016L566.016 702.016q-7.008 6.016-16.992 6.016t-17.504-7.008-8.512-18.016v-94.016h-72q-67.008 0-125.504 24t-103.488 66.016q-3.008 3.008-7.008 3.008-10.016-.992-11.008-11.008v-2.016Q228.992 556 316 482.976t207.008-79.008v-96q.992-10.016 8.512-16.992t17.504-7.008 16 4.992l258.016 192q7.008 6.016 7.008 15.008t-7.008 15.008z" fill="#515151"/></svg>